<?xml version="1.0" standalone="no"?>
<!DOCTYPE svg PUBLIC "-//W3C//DTD SVG 20010904//EN"
 "http://www.w3.org/TR/2001/REC-SVG-20010904/DTD/svg10.dtd">
<svg version="1.0" xmlns="http://www.w3.org/2000/svg"
 width="20.000000pt" height="20.000000pt" viewBox="0 0 20.000000 20.000000"
 preserveAspectRatio="xMidYMid meet">
<metadata>
Created by potrace 1.10, written by Peter Selinger 2001-2011
</metadata>
<g transform="translate(0.000000,20.000000) scale(0.100000,-0.100000)"
fill="#cccccc" stroke="none">
<path d="M0 100 l0 -100 100 0 100 0 0 100 0 100 -100 0 -100 0 0 -100z m190
0 l0 -90 -89 0 -89 0 -1 90 -1 90 90 0 90 0 0 -90z"/>
<path d="M103 162 c-24 -2 -43 -7 -43 -13 0 -5 4 -9 10 -9 14 0 -16 -63 -33
-69 -13 -5 -14 -9 -2 -31 14 -25 14 -25 15 -2 0 23 29 40 74 45 19 2 56 46 56
66 0 12 -27 17 -77 13z"/>
</g>
</svg>
